<?xml version="1.0" encoding="UTF-8"?>
<svg data-bbox="6 6 540.18 498.62" viewBox="0 0 552.16 510.61" xmlns="http://www.w3.org/2000/svg" data-type="ugc">
    <g>
        <path stroke="#ffffff" fill="none" stroke-width="12" stroke-miterlimit="10" stroke-linecap="round" d="M68.33 47.55v94.73"/>
        <path d="M431.9 203.37c-30.37 0-54.65 26.06-51.69 57.04 2.58 27 26.8 46.84 53.93 46.84h91.26c11.47 0 20.78-9.3 20.78-20.78v-62.33c0-11.47-9.3-20.78-20.78-20.78h-93.49Z" stroke="#ffffff" fill="none" stroke-width="12" stroke-linejoin="round"/>
        <path d="M338.41 421.51h166.2c11.47 0 20.78-9.3 20.78-20.78v-93.49" stroke="#ffffff" fill="none" stroke-width="12" stroke-miterlimit="10" stroke-linecap="round"/>
        <path d="M525.39 203.37v-93.49c0-11.47-9.3-20.78-20.78-20.78H109.88c-22.95 0-41.55-18.6-41.55-41.55S86.93 6 109.88 6h363.57c11.47 0 20.78 9.3 20.78 20.78v62.33" stroke="#ffffff" fill="none" stroke-width="12" stroke-miterlimit="10"/>
        <path fill="none" stroke-width="12" stroke-linejoin="round" stroke-linecap="round" stroke="#00ffff" d="M182.6 218.95c0 20.081-39.533 36.36-88.3 36.36S6 239.031 6 218.95s39.533-36.36 88.3-36.36 88.3 16.279 88.3 36.36"/>
        <path d="M6 270.89c0 20.08 39.53 36.36 88.3 36.36s88.3-16.28 88.3-36.36" fill="none" stroke-width="12" stroke-linejoin="round" stroke-linecap="round" stroke="#00ffff"/>
        <path d="M6 322.83c0 20.08 39.53 36.36 88.3 36.36 9.64 0 18.92-.64 27.61-1.81" fill="none" stroke-width="12" stroke-linejoin="round" stroke-linecap="round" stroke="#00ffff"/>
        <path d="M6 374.77c0 20.08 39.53 36.36 88.3 36.36 9.04 0 17.76-.56 25.97-1.6" fill="none" stroke-width="12" stroke-linejoin="round" stroke-linecap="round" stroke="#00ffff"/>
        <path fill="none" stroke-width="12" stroke-linejoin="round" stroke-linecap="round" stroke="#00ffff" d="M296.86 364.38c0 20.081-39.533 36.36-88.3 36.36s-88.3-16.279-88.3-36.36 39.533-36.36 88.3-36.36 88.3 16.279 88.3 36.36"/>
        <path d="M120.27 416.32c0 20.08 39.53 36.36 88.3 36.36s88.3-16.28 88.3-36.36" fill="none" stroke-width="12" stroke-linejoin="round" stroke-linecap="round" stroke="#00ffff"/>
        <path d="M120.27 364.38v103.88c0 20.08 39.53 36.36 88.3 36.36s88.3-16.28 88.3-36.36V364.38" fill="none" stroke-width="12" stroke-linejoin="round" stroke-linecap="round" stroke="#00ffff"/>
        <path d="M6 218.95v207.76c0 20.08 39.53 36.36 88.3 36.36 9.04 0 17.76-.56 25.97-1.6" fill="none" stroke-width="12" stroke-linejoin="round" stroke-linecap="round" stroke="#00ffff"/>
        <path fill="none" stroke-width="12" stroke-linejoin="round" stroke-linecap="round" stroke="#00ffff" d="M182.59 329.63V218.95"/>
    </g>
</svg>
